<?xml version="1.0"?>
<svg xmlns="http://www.w3.org/2000/svg" xmlns:xlink="http://www.w3.org/1999/xlink" xmlns:svgjs="http://svgjs.com/svgjs" version="1.1" width="512" height="512" x="0" y="0" viewBox="0 0 510 510" style="enable-background:new 0 0 512 512" xml:space="preserve"><g><g xmlns="http://www.w3.org/2000/svg" id="XMLID_237_"><path id="XMLID_242_" d="m510 395.533c0-22.759-27.624-34.801-36.702-38.758-11.386-4.963-25.722-9.607-42.291-13.74 1.422 9.025 2.156 18.154 2.156 27.289v78.272c51.688-12.773 76.837-30.153 76.837-53.063z" fill="#ffffff" data-original="#000000" style=""/><path id="XMLID_275_" d="m76.837 370.325c0-9.099.728-18.191 2.139-27.18-16.505 4.089-30.761 8.672-42.077 13.561-9.127 3.945-36.899 15.946-36.899 38.827 0 22.91 25.149 40.29 76.837 53.064z" fill="#ffffff" data-original="#000000" style=""/><path id="XMLID_281_" d="m255 464.805c49.205 0 96.137-3.624 135.723-10.479l12.44-2.155v-81.847c0-31.196-10.211-62.325-28.754-87.652l-7.126-9.734 7.979-9.048c8.989-10.193 16.353-21.48 25.274-46.22 27.078-75.043-1.986-152.915-3.237-156.193l-6.21-16.283-15.177 8.565c-3.055 1.724-75.148 43.105-102.223 118.148-1.718 4.765-3.145 8.993-4.359 12.924l-14.33 46.391-14.332-46.389c-1.216-3.936-2.642-8.164-4.36-12.928-27.073-75.04-99.166-116.42-102.222-118.146l-15.176-8.564-6.21 16.282c-1.25 3.279-30.315 81.15-3.24 156.186 8.924 24.746 16.288 36.034 25.277 46.227l7.979 9.048-7.126 9.734c-18.542 25.328-28.754 56.457-28.754 87.652v81.847l12.44 2.155c39.587 6.855 86.519 10.479 135.724 10.479zm-34.25-77.17h18.75v-22h30v22h18.75v30h-67.5zm82.25-70c8.409 0 14.636 6.873 15 15 .363 8.101-7.154 15-15 15-8.409 0-14.636-6.873-15-15-.363-8.101 7.154-15 15-15zm-96 0c8.409 0 14.636 6.873 15 15 .363 8.101-7.154 15-15 15-8.409 0-14.636-6.873-15-15-.363-8.101 7.154-15 15-15z" fill="#ffffff" data-original="#000000" style=""/></g></g></svg>
